<svg width="9" height="10" viewBox="0 0 9 10" fill="none" xmlns="http://www.w3.org/2000/svg">
<path d="M7.99892 4.375H7.53252V2.96875C7.53252 1.33203 6.20717 0 4.57867 0C2.95016 0 1.62481 1.33203 1.62481 2.96875V4.375H1.15841C0.643432 4.375 0.225616 4.79492 0.225616 5.3125V9.0625C0.225616 9.58008 0.643432 10 1.15841 10H7.99892C8.5139 10 8.93172 9.58008 8.93172 9.0625V5.3125C8.93172 4.79492 8.5139 4.375 7.99892 4.375ZM5.97786 4.375H3.17947V2.96875C3.17947 2.19336 3.80717 1.5625 4.57867 1.5625C5.35017 1.5625 5.97786 2.19336 5.97786 2.96875V4.375Z" fill="#5AB382"/>
</svg>
