<svg width="9" height="11" viewBox="0 0 9 11" fill="none" xmlns="http://www.w3.org/2000/svg">
<path d="M4.94365 5.3816L7.81945 3.35779C7.91458 3.29084 7.93771 3.15904 7.87109 3.06343L5.85744 0.17313C5.79082 0.0775189 5.65969 0.0542793 5.56456 0.121227L4.87551 0.606134C4.78038 0.673082 4.75726 0.80488 4.82387 0.900491L5.60901 2.02745C4.44099 1.75647 3.16683 1.96921 2.11117 2.72367C0.155857 4.12106 -0.304637 6.82378 1.07569 8.79609C2.45411 10.7657 5.15952 11.2428 7.12311 9.86099C8.04312 9.21355 8.63717 8.27273 8.86792 7.2524C8.89466 7.13421 8.8183 7.0174 8.69953 6.99636L7.87051 6.84944C7.76131 6.83009 7.65568 6.8992 7.62979 7.00756C7.46031 7.71731 7.04183 8.3701 6.3994 8.82221C5.00311 9.80483 3.08168 9.46453 2.10383 8.06097C1.12614 6.65765 1.46473 4.72652 2.86125 3.74374C3.70097 3.15279 4.73056 3.0405 5.63067 3.35003L4.21994 4.34282C4.1248 4.40977 4.10168 4.54157 4.16829 4.63718L4.65077 5.3297C4.71738 5.42531 4.84852 5.44855 4.94365 5.3816Z" fill="#C4C4C4"/>
</svg>
